<?xml version="1.0" encoding="UTF-8" standalone="no"?>
<svg
   xmlns:dc="http://purl.org/dc/elements/1.1/"
   xmlns:cc="http://creativecommons.org/ns#"
   xmlns:rdf="http://www.w3.org/1999/02/22-rdf-syntax-ns#"
   xmlns:svg="http://www.w3.org/2000/svg"
   xmlns="http://www.w3.org/2000/svg"
   xmlns:sodipodi="http://sodipodi.sourceforge.net/DTD/sodipodi-0.dtd"
   xmlns:inkscape="http://www.inkscape.org/namespaces/inkscape"
   sodipodi:docname="apply.svg"
   inkscape:version="1.0beta1 (fe3e306, 2019-09-17)"
   id="svg1032"
   version="1.1"
   viewBox="0 0 8.4666659 8.4666659"
   height="32"
   width="32">
  <defs
     id="defs1026" />
  <sodipodi:namedview
     inkscape:window-maximized="0"
     inkscape:window-y="0"
     inkscape:window-x="-7"
     inkscape:window-height="1368"
     inkscape:window-width="3136"
     units="px"
     inkscape:showpageshadow="false"
     showborder="true"
     inkscape:pagecheckerboard="true"
     showgrid="false"
     inkscape:document-rotation="0"
     inkscape:current-layer="layer1"
     inkscape:document-units="mm"
     inkscape:cy="9.8581962"
     inkscape:cx="0.52050318"
     inkscape:zoom="15.839192"
     inkscape:pageshadow="2"
     inkscape:pageopacity="0.0"
     borderopacity="1.0"
     bordercolor="#666666"
     pagecolor="#ffffff"
     id="base" />
  <metadata
     id="metadata1029">
    <rdf:RDF>
      <cc:Work
         rdf:about="">
        <dc:format>image/svg+xml</dc:format>
        <dc:type
           rdf:resource="http://purl.org/dc/dcmitype/StillImage" />
        <dc:title></dc:title>
      </cc:Work>
    </rdf:RDF>
  </metadata>
  <g
     id="layer1"
     inkscape:groupmode="layer"
     inkscape:label="Layer 1">
    <g
       style="stroke-width:8.9802"
       transform="matrix(0.02946297,0,0,0.02946297,-0.00265167,-60.320725)"
       id="g1771">
      <g
         style="stroke-width:8.9802"
         id="g1752">
        <path
           style="stroke-width:8.9802"
           inkscape:connector-curvature="0"
           d="m 256,43.5 c -6.6,0 -12,5.4 -12,12 v 251 l -45.5,-41.1 c -4.9,-4.4 -12.5,-4.1 -16.9,0.9 -4.4,4.9 -4.1,12.5 0.9,16.9 l 65.5,59.2 c 2.3,2.1 5.2,3.1 8,3.1 2.9,0 5.8,-1 8,-3.1 l 65.5,-59.2 c 4.9,-4.4 5.3,-12 0.9,-16.9 -4.4,-4.9 -12,-5.3 -16.9,-0.9 L 268,306.5 v -251 c 0,-6.6 -5.4,-12 -12,-12 z"
           id="path1748" />
        <path
           style="stroke-width:8.9802"
           inkscape:connector-curvature="0"
           d="m 113.3,468 h 285.5 c 27.5,0 50.3,-21.9 50.3,-49.4 V 181.9 c 0,-27.5 -22.8,-49.9 -50.3,-49.9 h -63.7 c -6.6,0 -12,5.4 -12,12 0,6.6 5.4,12 12,12 h 63.7 c 14.3,0 26.3,11.6 26.3,25.9 v 236.7 c 0,14.3 -12,25.4 -26.3,25.4 H 113.3 C 99,444 87,432.9 87,418.6 V 181.9 C 87,167.6 99,156 113.3,156 H 177 c 6.6,0 12,-5.4 12,-12 0,-6.6 -5.4,-12 -12,-12 H 113.3 C 85.8,132 63,154.4 63,181.9 v 236.7 c 0,27.5 22.8,49.4 50.3,49.4 z"
           id="path1750" />
      </g>
      <text
         style="stroke-width:8.9802"
         x="0"
         y="527"
         fill="#000000"
         font-size="5px"
         font-weight="bold"
         font-family="'Helvetica Neue', Helvetica, Arial-Unicode, Arial, Sans-serif"
         id="text1754">Created by prakruti</text>
      <text
         style="stroke-width:8.9802"
         x="0"
         y="532"
         fill="#000000"
         font-size="5px"
         font-weight="bold"
         font-family="'Helvetica Neue', Helvetica, Arial-Unicode, Arial, Sans-serif"
         id="text1756">from the Noun Project</text>
    </g>
    <g
       transform="matrix(1.071217,0,0,1.071217,-0.58618695,-0.09254478)"
       style="opacity:1;stroke-width:0.933518"
       id="g4072">
      <path
         inkscape:connector-curvature="0"
         transform="scale(0.26458333)"
         d="m 29.449219,4.9941406 c -0.390872,0.00249 -0.7797,0.1555182 -1.080078,0.4609375 L 14.564453,19.525391 c -0.557878,0.572616 -1.470796,0.555129 -2.023437,0.0078 v 0.0059 L 5.640625,12.755859 C 5.2203015,12.351965 4.8594135,12.258081 4.5039062,12.283203 c -0.3574771,0.02526 -0.7333863,0.210452 -1.0195312,0.501953 -0.2861449,0.291502 -0.4614947,0.674259 -0.4804688,1.033203 -0.018825,0.356114 0.0799,0.71078 0.4882813,1.123047 l 9.0136715,8.865235 c 0.614578,0.602932 1.559595,0.596996 2.16211,-0.01563 L 30.552734,7.6171875 h 0.0078 C 31.165571,7.0033786 31.15371,6.0430636 30.539062,5.4414062 30.232654,5.1408042 29.840091,4.9916539 29.449219,4.9941406 Z"
         style="color:#000000;font-style:normal;font-variant:normal;font-weight:normal;font-stretch:normal;font-size:medium;line-height:normal;font-family:sans-serif;font-variant-ligatures:normal;font-variant-position:normal;font-variant-caps:normal;font-variant-numeric:normal;font-variant-alternates:normal;font-variant-east-asian:normal;font-feature-settings:normal;font-variation-settings:normal;text-indent:0;text-align:start;text-decoration:none;text-decoration-line:none;text-decoration-style:solid;text-decoration-color:#000000;letter-spacing:normal;word-spacing:normal;text-transform:none;writing-mode:lr-tb;direction:ltr;text-orientation:mixed;dominant-baseline:auto;baseline-shift:baseline;text-anchor:start;white-space:normal;shape-padding:0;shape-margin:0;inline-size:0;clip-rule:nonzero;display:inline;overflow:visible;visibility:visible;isolation:auto;mix-blend-mode:normal;color-interpolation:sRGB;color-interpolation-filters:linearRGB;solid-color:#000000;solid-opacity:1;vector-effect:none;fill:#ffffff;fill-opacity:1;fill-rule:nonzero;stroke:none;stroke-width:1.86704;stroke-linecap:butt;stroke-linejoin:miter;stroke-miterlimit:4;stroke-dasharray:none;stroke-dashoffset:0;stroke-opacity:1;color-rendering:auto;image-rendering:auto;shape-rendering:auto;text-rendering:auto;enable-background:accumulate;stop-color:#000000;stop-opacity:1"
         id="path4074" />
    </g>
  </g>
</svg>
