<?xml version="1.0" encoding="UTF-8" standalone="no"?>
<svg
   xmlns:dc="http://purl.org/dc/elements/1.1/"
   xmlns:cc="http://creativecommons.org/ns#"
   xmlns:rdf="http://www.w3.org/1999/02/22-rdf-syntax-ns#"
   xmlns:svg="http://www.w3.org/2000/svg"
   xmlns="http://www.w3.org/2000/svg"
   xmlns:sodipodi="http://sodipodi.sourceforge.net/DTD/sodipodi-0.dtd"
   xmlns:inkscape="http://www.inkscape.org/namespaces/inkscape"
   sodipodi:docname="back.svg"
   inkscape:version="1.0beta1 (fe3e306, 2019-09-17)"
   id="svg1032"
   version="1.1"
   viewBox="0 0 8.4666659 8.4666659"
   height="32"
   width="32">
  <defs
     id="defs1026" />
  <sodipodi:namedview
     inkscape:window-maximized="0"
     inkscape:window-y="0"
     inkscape:window-x="0"
     inkscape:window-height="1368"
     inkscape:window-width="2074"
     units="px"
     inkscape:showpageshadow="false"
     showborder="true"
     inkscape:pagecheckerboard="true"
     showgrid="false"
     inkscape:document-rotation="0"
     inkscape:current-layer="layer1"
     inkscape:document-units="mm"
     inkscape:cy="9.8581962"
     inkscape:cx="0.52050318"
     inkscape:zoom="15.839192"
     inkscape:pageshadow="2"
     inkscape:pageopacity="0.0"
     borderopacity="1.0"
     bordercolor="#666666"
     pagecolor="#ffffff"
     id="base" />
  <metadata
     id="metadata1029">
    <rdf:RDF>
      <cc:Work
         rdf:about="">
        <dc:format>image/svg+xml</dc:format>
        <dc:type
           rdf:resource="http://purl.org/dc/dcmitype/StillImage" />
        <dc:title />
      </cc:Work>
    </rdf:RDF>
  </metadata>
  <g
     id="layer1"
     inkscape:groupmode="layer"
     inkscape:label="Layer 1">
    <path
       style="fill:#ffffff;fill-opacity:1;stroke-width:0.264583"
       id="path1696"
       d="m 4.19081,0.94219495 c -0.1979267,-0.1979266 -0.5071871,-0.1979266 -0.7051137,0 L 0.67761178,3.7626499 c -0.19792682,0.1979267 -0.19792682,0.5071873 0,0.7051138 L 3.4980665,7.2882186 c 0.098964,0.098964 0.2226677,0.148445 0.3463717,0.148445 0.1237044,0 0.2474084,-0.049482 0.3463718,-0.148445 0.1979265,-0.1979265 0.1979265,-0.5071873 0,-0.7051139 L 1.7290972,4.1090216 4.19081,1.6473088 c 0.1979265,-0.1979266 0.1979265,-0.5071872 0,-0.70511385 z"
       inkscape:connector-curvature="0" />
    <path
       inkscape:connector-curvature="0"
       d="m 7.7890551,0.94219495 c -0.1979268,-0.1979266 -0.5071871,-0.1979266 -0.7051138,0 L 4.2758569,3.7626499 c -0.1979268,0.1979267 -0.1979268,0.5071873 0,0.7051138 l 2.8204546,2.8204549 c 0.098964,0.098964 0.2226678,0.1484452 0.3463718,0.1484452 0.1237043,0 0.2474083,-0.049482 0.3463719,-0.1484452 0.1979265,-0.1979265 0.1979265,-0.5071873 0,-0.7051139 L 5.3273423,4.1090215 7.7890551,1.6473088 c 0.1979265,-0.1979266 0.1979265,-0.5071872 0,-0.70511385 z"
       id="path1696-7"
       style="fill:#ffffff;fill-opacity:1;stroke-width:0.264583" />
    <g
       style="stroke-width:8.9802"
       transform="matrix(0.02946297,0,0,0.02946297,-0.00265167,-60.320725)"
       id="g1771">
      <g
         style="stroke-width:8.9802"
         id="g1752">
        <path
           style="stroke-width:8.9802"
           inkscape:connector-curvature="0"
           d="m 256,43.5 c -6.6,0 -12,5.4 -12,12 v 251 l -45.5,-41.1 c -4.9,-4.4 -12.5,-4.1 -16.9,0.9 -4.4,4.9 -4.1,12.5 0.9,16.9 l 65.5,59.2 c 2.3,2.1 5.2,3.1 8,3.1 2.9,0 5.8,-1 8,-3.1 l 65.5,-59.2 c 4.9,-4.4 5.3,-12 0.9,-16.9 -4.4,-4.9 -12,-5.3 -16.9,-0.9 L 268,306.5 v -251 c 0,-6.6 -5.4,-12 -12,-12 z"
           id="path1748" />
        <path
           style="stroke-width:8.9802"
           inkscape:connector-curvature="0"
           d="m 113.3,468 h 285.5 c 27.5,0 50.3,-21.9 50.3,-49.4 V 181.9 c 0,-27.5 -22.8,-49.9 -50.3,-49.9 h -63.7 c -6.6,0 -12,5.4 -12,12 0,6.6 5.4,12 12,12 h 63.7 c 14.3,0 26.3,11.6 26.3,25.9 v 236.7 c 0,14.3 -12,25.4 -26.3,25.4 H 113.3 C 99,444 87,432.9 87,418.6 V 181.9 C 87,167.6 99,156 113.3,156 H 177 c 6.6,0 12,-5.4 12,-12 0,-6.6 -5.4,-12 -12,-12 H 113.3 C 85.8,132 63,154.4 63,181.9 v 236.7 c 0,27.5 22.8,49.4 50.3,49.4 z"
           id="path1750" />
      </g>
      <text
         style="stroke-width:8.9802"
         x="0"
         y="527"
         fill="#000000"
         font-size="5px"
         font-weight="bold"
         font-family="'Helvetica Neue', Helvetica, Arial-Unicode, Arial, Sans-serif"
         id="text1754">Created by prakruti</text>
      <text
         style="stroke-width:8.9802"
         x="0"
         y="532"
         fill="#000000"
         font-size="5px"
         font-weight="bold"
         font-family="'Helvetica Neue', Helvetica, Arial-Unicode, Arial, Sans-serif"
         id="text1756">from the Noun Project</text>
    </g>
  </g>
</svg>
