<?xml version="1.0" encoding="UTF-8" standalone="no"?>
<svg
   xmlns:dc="http://purl.org/dc/elements/1.1/"
   xmlns:cc="http://creativecommons.org/ns#"
   xmlns:rdf="http://www.w3.org/1999/02/22-rdf-syntax-ns#"
   xmlns:svg="http://www.w3.org/2000/svg"
   xmlns="http://www.w3.org/2000/svg"
   xmlns:sodipodi="http://sodipodi.sourceforge.net/DTD/sodipodi-0.dtd"
   xmlns:inkscape="http://www.inkscape.org/namespaces/inkscape"
   inkscape:version="1.0beta1 (fe3e306, 2019-09-17)"
   sodipodi:docname="camera.svg"
   id="svg3180"
   viewBox="0 0 16.933 16.933"
   version="1.1"
   height="64"
   width="64">
  <metadata
     id="metadata3186">
    <rdf:RDF>
      <cc:Work
         rdf:about="">
        <dc:format>image/svg+xml</dc:format>
        <dc:type
           rdf:resource="http://purl.org/dc/dcmitype/StillImage" />
        <dc:title></dc:title>
      </cc:Work>
    </rdf:RDF>
  </metadata>
  <defs
     id="defs3184" />
  <sodipodi:namedview
     inkscape:pagecheckerboard="true"
     inkscape:current-layer="svg3180"
     inkscape:window-maximized="1"
     inkscape:window-y="-6"
     inkscape:window-x="-6"
     inkscape:cy="32"
     inkscape:cx="32"
     inkscape:zoom="10.46875"
     showgrid="false"
     id="namedview3182"
     inkscape:window-height="838"
     inkscape:window-width="1600"
     inkscape:pageshadow="2"
     inkscape:pageopacity="0"
     guidetolerance="10"
     gridtolerance="10"
     objecttolerance="10"
     borderopacity="1"
     inkscape:document-rotation="0"
     bordercolor="#666666"
     pagecolor="#ffffff" />
  <g
     style="fill:#ffffff;fill-opacity:1;stroke-width:9.27079"
     transform="matrix(0.03801298,0,0,0.03801298,0,0.52054395)"
     id="g3766">
    <path
       style="fill:#ffffff;fill-opacity:1;stroke-width:9.27079"
       inkscape:connector-curvature="0"
       d="M 395.45312,53.863281 H 323.10547 L 312.03516,29.527344 C 303.89844,11.703125 286.12109,0.257812 266.52734,0.226562 H 173.62891 C 154.03125,0.253906 136.25,11.703125 128.11328,29.527344 L 117.04687,53.863281 H 50 C 22.398438,53.894531 0.03125,76.261719 0,103.86328 v 226.36328 c 0.03125,27.60156 22.398438,49.96875 50,50 h 345.45312 c 27.60157,-0.0312 49.96875,-22.39844 50,-50 V 103.86328 c -0.0312,-27.601561 -22.39843,-49.968749 -50,-49.999999 z m 30,276.363279 c -0.0195,16.5625 -13.4375,29.98047 -30,30 H 50 c -16.5625,-0.0195 -29.980469,-13.4375 -30,-30 V 103.86328 C 20.019531,87.300781 33.4375,73.882812 50,73.863281 h 73.48438 c 3.92187,0 7.47656,-2.292969 9.10156,-5.859375 l 13.73047,-30.199218 c 4.88671,-10.695313 15.55468,-17.5625 27.3125,-17.578126 h 92.89843 c 11.75391,0.01953 22.41797,6.886719 27.30078,17.582032 l 13.73047,30.199218 c 1.625,3.566407 5.1836,5.859376 9.10157,5.859376 h 78.78906 c 16.55859,0.01953 29.98047,13.441406 30,30.000002 z m 0,0"
       id="path3749" />
    <path
       style="fill:#ffffff;fill-opacity:1;stroke-width:9.27079"
       inkscape:connector-curvature="0"
       d="m 220.07422,87.726562 c -67.32422,0 -121.898439,54.578128 -121.898439,121.902348 0,67.32031 54.574219,121.89843 121.898439,121.89843 67.32422,0 121.90234,-54.57812 121.90234,-121.89843 C 341.89844,142.33594 287.36719,87.804688 220.07422,87.726562 Z m 0,223.800778 c -56.27735,0 -101.89844,-45.62109 -101.89844,-101.89843 0,-56.27735 45.62109,-101.90235 101.89844,-101.90235 56.27734,0 101.90234,45.625 101.90234,101.90235 -0.0664,56.25 -45.64844,101.83593 -101.90234,101.89843 z m 0,0"
       id="path3751" />
  </g>
</svg>
