<?xml version="1.0" encoding="UTF-8" standalone="no"?>
<svg
   xmlns:dc="http://purl.org/dc/elements/1.1/"
   xmlns:cc="http://creativecommons.org/ns#"
   xmlns:rdf="http://www.w3.org/1999/02/22-rdf-syntax-ns#"
   xmlns:svg="http://www.w3.org/2000/svg"
   xmlns="http://www.w3.org/2000/svg"
   xmlns:sodipodi="http://sodipodi.sourceforge.net/DTD/sodipodi-0.dtd"
   xmlns:inkscape="http://www.inkscape.org/namespaces/inkscape"
   width="32"
   height="32"
   viewBox="0 0 8.4666659 8.4666659"
   version="1.1"
   id="svg1032"
   inkscape:version="1.0beta2 (654b821, 2020-03-27)"
   sodipodi:docname="down.svg">
  <defs
     id="defs1026" />
  <sodipodi:namedview
     id="base"
     pagecolor="#ffffff"
     bordercolor="#666666"
     borderopacity="1.0"
     inkscape:pageopacity="0.0"
     inkscape:pageshadow="2"
     inkscape:zoom="15.839192"
     inkscape:cx="0.52050318"
     inkscape:cy="9.8581962"
     inkscape:document-units="mm"
     inkscape:current-layer="layer1"
     inkscape:document-rotation="0"
     showgrid="false"
     inkscape:pagecheckerboard="true"
     showborder="true"
     inkscape:showpageshadow="false"
     units="px"
     inkscape:window-width="3136"
     inkscape:window-height="1368"
     inkscape:window-x="-7"
     inkscape:window-y="0"
     inkscape:window-maximized="0" />
  <metadata
     id="metadata1029">
    <rdf:RDF>
      <cc:Work
         rdf:about="">
        <dc:format>image/svg+xml</dc:format>
        <dc:type
           rdf:resource="http://purl.org/dc/dcmitype/StillImage" />
        <dc:title></dc:title>
      </cc:Work>
    </rdf:RDF>
  </metadata>
  <g
     inkscape:label="Layer 1"
     inkscape:groupmode="layer"
     id="layer1">
    <g
       id="g1771"
       transform="matrix(0.02946297,0,0,0.02946297,-0.00265167,-60.320725)"
       style="stroke-width:8.9802">
      <g
         id="g1752"
         style="stroke-width:8.9802">
        <path
           id="path1748"
           d="m 256,43.5 c -6.6,0 -12,5.4 -12,12 v 251 l -45.5,-41.1 c -4.9,-4.4 -12.5,-4.1 -16.9,0.9 -4.4,4.9 -4.1,12.5 0.9,16.9 l 65.5,59.2 c 2.3,2.1 5.2,3.1 8,3.1 2.9,0 5.8,-1 8,-3.1 l 65.5,-59.2 c 4.9,-4.4 5.3,-12 0.9,-16.9 -4.4,-4.9 -12,-5.3 -16.9,-0.9 L 268,306.5 v -251 c 0,-6.6 -5.4,-12 -12,-12 z"
           inkscape:connector-curvature="0"
           style="stroke-width:8.9802" />
        <path
           id="path1750"
           d="m 113.3,468 h 285.5 c 27.5,0 50.3,-21.9 50.3,-49.4 V 181.9 c 0,-27.5 -22.8,-49.9 -50.3,-49.9 h -63.7 c -6.6,0 -12,5.4 -12,12 0,6.6 5.4,12 12,12 h 63.7 c 14.3,0 26.3,11.6 26.3,25.9 v 236.7 c 0,14.3 -12,25.4 -26.3,25.4 H 113.3 C 99,444 87,432.9 87,418.6 V 181.9 C 87,167.6 99,156 113.3,156 H 177 c 6.6,0 12,-5.4 12,-12 0,-6.6 -5.4,-12 -12,-12 H 113.3 C 85.8,132 63,154.4 63,181.9 v 236.7 c 0,27.5 22.8,49.4 50.3,49.4 z"
           inkscape:connector-curvature="0"
           style="stroke-width:8.9802" />
      </g>
      <text
         id="text1754"
         font-family="'Helvetica Neue', Helvetica, Arial-Unicode, Arial, Sans-serif"
         font-weight="bold"
         font-size="5px"
         fill="#000000"
         y="527"
         x="0"
         style="stroke-width:8.9802">Created by prakruti</text>
      <text
         id="text1756"
         font-family="'Helvetica Neue', Helvetica, Arial-Unicode, Arial, Sans-serif"
         font-weight="bold"
         font-size="5px"
         fill="#000000"
         y="532"
         x="0"
         style="stroke-width:8.9802">from the Noun Project</text>
    </g>
    <g
       style="stroke-width:3.50714;fill-opacity:1;fill:#fbfbfb"
       transform="matrix(0.07544128,0,0,0.07544128,0.46126951,0.6833522)"
       id="g933">
      <path
         style="stroke-width:3.50714;fill-opacity:1;fill:#fbfbfb"
         inkscape:connector-curvature="0"
         d="M 50.1,63.5 10.8,24.2 C 7.2,20.6 0.9,23.1 0.9,28.3 v 0 c 0,1.5 0.6,3 1.7,4.1 l 43.3,43.3 c 2.3,2.3 5.9,2.3 8.2,0 L 97.4,32.4 c 1.1,-1.1 1.7,-2.6 1.7,-4.1 v 0 c 0,-5.2 -6.2,-7.7 -9.9,-4.1 L 50.1,63.5"
         id="path916" />
    </g>
  </g>
</svg>
