<?xml version="1.0" encoding="UTF-8" standalone="no"?>
<svg
   xmlns:dc="http://purl.org/dc/elements/1.1/"
   xmlns:cc="http://creativecommons.org/ns#"
   xmlns:rdf="http://www.w3.org/1999/02/22-rdf-syntax-ns#"
   xmlns:svg="http://www.w3.org/2000/svg"
   xmlns="http://www.w3.org/2000/svg"
   xmlns:sodipodi="http://sodipodi.sourceforge.net/DTD/sodipodi-0.dtd"
   xmlns:inkscape="http://www.inkscape.org/namespaces/inkscape"
   inkscape:version="1.0beta2 (654b821, 2020-03-27)"
   sodipodi:docname="save.svg"
   id="svg2347"
   viewBox="0 0 32 32"
   version="1.1"
   height="32"
   width="32">
  <sodipodi:namedview
     inkscape:current-layer="svg2347"
     inkscape:window-maximized="0"
     inkscape:window-y="0"
     inkscape:window-x="0"
     inkscape:cy="19.457586"
     inkscape:cx="10.224003"
     inkscape:zoom="20.85965"
     inkscape:showpageshadow="false"
     inkscape:pagecheckerboard="true"
     showgrid="false"
     id="namedview2349"
     inkscape:window-height="1165"
     inkscape:window-width="1602"
     inkscape:pageshadow="2"
     inkscape:pageopacity="0"
     guidetolerance="10"
     gridtolerance="10"
     objecttolerance="10"
     borderopacity="1"
     bordercolor="#666666"
     pagecolor="#ffffff" />
  <metadata
     id="metadata2335">
    <rdf:RDF>
      <cc:Work
         rdf:about="">
        <dc:format>image/svg+xml</dc:format>
        <dc:type
           rdf:resource="http://purl.org/dc/dcmitype/StillImage" />
        <dc:title></dc:title>
      </cc:Work>
    </rdf:RDF>
  </metadata>
  <defs
     id="defs2339">
    <style
       id="style2337"
       type="text/css">.fil0 {fill:black}</style>
  </defs>
  <g
     id="g2343"
     stroke-width=".66146"
     stroke-linejoin="round"
     stroke-dashoffset="7.4"
     stroke="#fff"
     fill="none"
     transform="matrix(3.7795 0 0 3.7795 .00011335 .00011335)">
    <path
       id="path2341"
       style="paint-order:normal"
       d="m8.1359 4.2333a3.9026 3.9026 0 0 1-3.9026 3.9026 3.9026 3.9026 0 0 1-3.9026-3.9026 3.9026 3.9026 0 0 1 3.9026-3.9026 3.9026 3.9026 0 0 1 3.9026 3.9026" />
  </g>
  <path
     inkscape:connector-curvature="0"
     id="path2345"
     stroke-width="0.999987"
     fill="#ffffff"
     d="m 21.663061,18.708895 -4.829027,4.923517 c -0.0065,0.01327 -0.01966,0.02003 -0.02621,0.02674 -0.176913,0.180372 -0.406241,0.293945 -0.635585,0.32734 -0.01966,0 -0.03932,0.0068 -0.05897,0.0068 -0.03932,0.0068 -0.07863,0.0068 -0.117942,0.0068 l -0.111394,-0.0068 c -0.01966,0 -0.03932,-0.0068 -0.05897,-0.0068 -0.235867,-0.0334 -0.458654,-0.146977 -0.63555,-0.32734 -0.0065,-0.0065 -0.01966,-0.02003 -0.02621,-0.02674 L 10.334172,18.708895 C 10.111394,18.481759 10,18.18113 10,17.880501 c 0,-0.300629 0.111394,-0.601258 0.334172,-0.828394 0.445566,-0.45428 1.172821,-0.45428 1.624961,0 l 2.902782,2.959533 V 9.1690576 C 14.861915,8.5277382 15.37954,8 16.008593,8 c 0.31451,0 0.602817,0.1336168 0.812481,0.3406996 0.209673,0.213785 0.334172,0.5010539 0.334172,0.8283936 V 20.011676 l 2.902782,-2.959533 c 0.445566,-0.454281 1.172821,-0.454281 1.624961,0 0.425903,0.460956 0.425903,1.20248 -0.01966,1.656787 z" />
</svg>
