<?xml version="1.0" encoding="UTF-8"?>
<svg width="32" height="32" version="1.1" viewBox="0 0 32 32" xmlns="http://www.w3.org/2000/svg" xmlns:cc="http://creativecommons.org/ns#" xmlns:dc="http://purl.org/dc/elements/1.1/" xmlns:rdf="http://www.w3.org/1999/02/22-rdf-syntax-ns#">
 <metadata>
  <rdf:RDF>
   <cc:Work rdf:about="">
    <dc:format>image/svg+xml</dc:format>
    <dc:type rdf:resource="http://purl.org/dc/dcmitype/StillImage"/>
    <dc:title/>
   </cc:Work>
  </rdf:RDF>
 </metadata>
 <defs>
  <style type="text/css">.fil0 {fill:black}</style>
 </defs>
 <g transform="matrix(3.7795 0 0 3.7795 .00011335 .00011335)" fill="none" stroke="#fff" stroke-dashoffset="7.4" stroke-linejoin="round" stroke-width=".66146">
  <path d="m8.1359 4.2333a3.9026 3.9026 0 0 1-3.9026 3.9026 3.9026 3.9026 0 0 1-3.9026-3.9026 3.9026 3.9026 0 0 1 3.9026-3.9026 3.9026 3.9026 0 0 1 3.9026 3.9026" style="paint-order:normal"/>
 </g>
 <path d="m7 12v7h7.0435l-2.6749-2.6584c3.0829-2.6398 7.8971-2.5557 10.86 0.24002l0.91406 0.86285 1.8572-1.6984-0.91406-0.86133c-3.9542-3.7307-10.386-3.8405-14.495-0.3099z" fill="#fff"/>
</svg>
