<?xml version="1.0" encoding="UTF-8" standalone="no"?>
<svg
   xmlns:dc="http://purl.org/dc/elements/1.1/"
   xmlns:cc="http://creativecommons.org/ns#"
   xmlns:rdf="http://www.w3.org/1999/02/22-rdf-syntax-ns#"
   xmlns:svg="http://www.w3.org/2000/svg"
   xmlns="http://www.w3.org/2000/svg"
   xmlns:sodipodi="http://sodipodi.sourceforge.net/DTD/sodipodi-0.dtd"
   xmlns:inkscape="http://www.inkscape.org/namespaces/inkscape"
   inkscape:version="1.0beta2 (654b821, 2020-03-27)"
   sodipodi:docname="back.svg"
   height="24"
   width="24"
   xml:space="preserve"
   viewBox="0 0 24 24"
   y="0px"
   x="0px"
   id="Capa_1"
   version="1.1"><metadata
     id="metadata8476"><rdf:RDF><cc:Work
         rdf:about=""><dc:format>image/svg+xml</dc:format><dc:type
           rdf:resource="http://purl.org/dc/dcmitype/StillImage" /><dc:title /></cc:Work></rdf:RDF></metadata><defs
     id="defs8474" /><sodipodi:namedview
     inkscape:document-rotation="0"
     inkscape:current-layer="Capa_1"
     inkscape:window-maximized="0"
     inkscape:window-y="120"
     inkscape:window-x="47"
     inkscape:cy="8.5475352"
     inkscape:cx="9.0280225"
     inkscape:zoom="18.826718"
     inkscape:showpageshadow="false"
     inkscape:pagecheckerboard="true"
     showgrid="false"
     id="namedview8472"
     inkscape:window-height="900"
     inkscape:window-width="1600"
     inkscape:pageshadow="2"
     inkscape:pageopacity="0"
     guidetolerance="10"
     gridtolerance="10"
     objecttolerance="10"
     borderopacity="1"
     bordercolor="#666666"
     pagecolor="#ffffff" /><g
     style="stroke-width:16"
     transform="matrix(0.0625,0,0,0.0625,0,-8)"
     id="g8441" /><g
     style="stroke-width:16"
     transform="matrix(0.0625,0,0,0.0625,0,-8)"
     id="g8443" /><g
     style="stroke-width:16"
     transform="matrix(0.0625,0,0,0.0625,0,-8)"
     id="g8445" /><g
     style="stroke-width:16"
     transform="matrix(0.0625,0,0,0.0625,0,-8)"
     id="g8447" /><g
     style="stroke-width:16"
     transform="matrix(0.0625,0,0,0.0625,0,-8)"
     id="g8449" /><g
     style="stroke-width:16"
     transform="matrix(0.0625,0,0,0.0625,0,-8)"
     id="g8451" /><g
     style="stroke-width:16"
     transform="matrix(0.0625,0,0,0.0625,0,-8)"
     id="g8453" /><g
     style="stroke-width:16"
     transform="matrix(0.0625,0,0,0.0625,0,-8)"
     id="g8455" /><g
     style="stroke-width:16"
     transform="matrix(0.0625,0,0,0.0625,0,-8)"
     id="g8457" /><g
     style="stroke-width:16"
     transform="matrix(0.0625,0,0,0.0625,0,-8)"
     id="g8459" /><g
     style="stroke-width:16"
     transform="matrix(0.0625,0,0,0.0625,0,-8)"
     id="g8461" /><g
     style="stroke-width:16"
     transform="matrix(0.0625,0,0,0.0625,0,-8)"
     id="g8463" /><g
     style="stroke-width:16"
     transform="matrix(0.0625,0,0,0.0625,0,-8)"
     id="g8465" /><g
     style="stroke-width:16"
     transform="matrix(0.0625,0,0,0.0625,0,-8)"
     id="g8467" /><g
     style="stroke-width:16"
     transform="matrix(0.0625,0,0,0.0625,0,-8)"
     id="g8469" /><g
     transform="matrix(0.0963657,0,0,0.10029889,1,0.93292011)"
     id="g86456"
     style="fill:#ffffff;fill-opacity:1;stroke-width:10.1716"><polygon
       id="polygon86452"
       points="56.569,110.341 127.986,38.924 99.702,10.639 0,110.341 99.702,210.043 127.986,181.758 "
       style="fill:#ffffff;fill-opacity:1;stroke-width:10.1717" /><polygon
       transform="translate(7.614998)"
       id="polygon86454"
       points="220.682,181.758 149.264,110.341 220.682,38.924 192.398,10.639 92.695,110.341 192.398,210.043 "
       style="fill:#ffffff;fill-opacity:1;stroke-width:10.1717" /></g><g
     transform="matrix(0.09969096,0,0,0.09969096,1,1.0606117)"
     id="g86458"
     style="fill:#ffffff;fill-opacity:1;stroke-width:10.03100014" /><g
     transform="matrix(0.09969096,0,0,0.09969096,1,1.0606117)"
     id="g86460"
     style="fill:#ffffff;fill-opacity:1;stroke-width:10.03100014" /><g
     transform="matrix(0.09969096,0,0,0.09969096,1,1.0606117)"
     id="g86462"
     style="fill:#ffffff;fill-opacity:1;stroke-width:10.03100014" /><g
     transform="matrix(0.09969096,0,0,0.09969096,1,1.0606117)"
     id="g86464"
     style="fill:#ffffff;fill-opacity:1;stroke-width:10.03100014" /><g
     transform="matrix(0.09969096,0,0,0.09969096,1,1.0606117)"
     id="g86466"
     style="fill:#ffffff;fill-opacity:1;stroke-width:10.03100014" /><g
     transform="matrix(0.09969096,0,0,0.09969096,1,1.0606117)"
     id="g86468"
     style="fill:#ffffff;fill-opacity:1;stroke-width:10.03100014" /><g
     transform="matrix(0.09969096,0,0,0.09969096,1,1.0606117)"
     id="g86470"
     style="fill:#ffffff;fill-opacity:1;stroke-width:10.03100014" /><g
     transform="matrix(0.09969096,0,0,0.09969096,1,1.0606117)"
     id="g86472"
     style="fill:#ffffff;fill-opacity:1;stroke-width:10.03100014" /><g
     transform="matrix(0.09969096,0,0,0.09969096,1,1.0606117)"
     id="g86474"
     style="fill:#ffffff;fill-opacity:1;stroke-width:10.03100014" /><g
     transform="matrix(0.09969096,0,0,0.09969096,1,1.0606117)"
     id="g86476"
     style="fill:#ffffff;fill-opacity:1;stroke-width:10.03100014" /><g
     transform="matrix(0.09969096,0,0,0.09969096,1,1.0606117)"
     id="g86478"
     style="fill:#ffffff;fill-opacity:1;stroke-width:10.03100014" /><g
     transform="matrix(0.09969096,0,0,0.09969096,1,1.0606117)"
     id="g86480"
     style="fill:#ffffff;fill-opacity:1;stroke-width:10.03100014" /><g
     transform="matrix(0.09969096,0,0,0.09969096,1,1.0606117)"
     id="g86482"
     style="fill:#ffffff;fill-opacity:1;stroke-width:10.03100014" /><g
     transform="matrix(0.09969096,0,0,0.09969096,1,1.0606117)"
     id="g86484"
     style="fill:#ffffff;fill-opacity:1;stroke-width:10.03100014" /><g
     transform="matrix(0.09969096,0,0,0.09969096,1,1.0606117)"
     id="g86486"
     style="fill:#ffffff;fill-opacity:1;stroke-width:10.03100014" /></svg>
