<?xml version="1.0" standalone="no"?>
<!DOCTYPE svg PUBLIC "-//W3C//DTD SVG 20010904//EN"
 "http://www.w3.org/TR/2001/REC-SVG-20010904/DTD/svg10.dtd">
<svg version="1.0" xmlns="http://www.w3.org/2000/svg"
 width="700.000000pt" height="700.000000pt" viewBox="0 0 700.000000 700.000000"
 preserveAspectRatio="xMidYMid meet">
<metadata>
Created by potrace 1.11, written by Peter Selinger 2001-2013
</metadata>
<g transform="translate(0.000000,700.000000) scale(0.100000,-0.100000)"
fill="#000000" stroke="none">
<path d="M0 3500 l0 -3500 3500 0 3500 0 0 3500 0 3500 -3500 0 -3500 0 0
-3500z m3790 2609 c1043 -113 1937 -862 2229 -1869 72 -250 102 -465 102 -740
0 -267 -20 -422 -86 -677 -46 -174 -92 -297 -180 -478 -394 -806 -1180 -1357
-2075 -1455 -148 -16 -431 -14 -587 4 -587 69 -1127 331 -1548 751 -498 497
-768 1148 -768 1855 0 441 95 827 298 1217 364 700 1043 1208 1811 1357 278
54 530 65 804 35z"/>
<path d="M1910 3720 l0 -1090 479 0 c519 0 580 5 721 56 226 81 367 239 406
454 24 135 5 300 -47 402 -49 97 -167 186 -286 218 -43 11 -59 30 -25 30 35 0
124 51 176 99 89 85 136 211 136 368 0 273 -134 435 -423 508 -149 37 -271 45
-717 45 l-420 0 0 -1090z m943 681 c32 -13 73 -38 91 -56 85 -85 68 -274 -32
-340 -66 -43 -138 -55 -344 -55 l-188 0 0 241 0 241 208 -4 c186 -4 213 -7
265 -27z m7 -849 c77 -25 132 -68 162 -125 18 -34 22 -59 23 -127 0 -101 -24
-160 -85 -212 -73 -63 -110 -71 -357 -76 l-223 -4 0 287 0 287 208 -4 c175 -4
217 -8 272 -26z"/>
<path d="M4165 4199 c-280 -40 -457 -195 -501 -440 -44 -242 40 -466 217 -580
l50 -32 -49 -32 c-104 -71 -162 -161 -162 -253 0 -74 68 -186 134 -221 34 -19
33 -27 -5 -35 -56 -11 -162 -70 -211 -118 -27 -26 -61 -74 -76 -105 -24 -52
-27 -69 -27 -168 0 -99 3 -116 27 -168 61 -129 201 -227 383 -267 120 -27 329
-36 482 -21 272 27 460 98 588 224 115 114 159 222 157 392 -1 195 -75 326
-227 403 -93 46 -146 54 -450 62 -161 4 -305 12 -324 18 -73 24 -99 78 -67
141 27 52 35 54 214 56 135 2 182 6 247 24 269 72 416 236 440 491 8 86 -11
193 -45 260 -12 23 -19 44 -17 46 3 3 60 20 128 37 l124 33 0 114 0 115 -335
7 c-184 3 -360 11 -390 16 -66 13 -222 13 -305 1z m256 -280 c88 -30 131 -93
150 -221 20 -137 -20 -275 -95 -326 -91 -62 -228 -56 -306 14 -62 56 -84 120
-84 244 1 157 36 233 128 276 57 27 149 32 207 13z m237 -1469 c58 -17 107
-65 116 -112 22 -120 -79 -218 -269 -265 -102 -25 -361 -24 -430 1 -102 37
-155 98 -155 179 0 98 58 165 175 203 53 18 500 13 563 -6z"/>
</g>
</svg>
