<svg width="32" height="32" version="1.1" viewBox="0 0 8.4667 8.4667" xmlns="http://www.w3.org/2000/svg">
 <defs>
  <style type="text/css">.fil0 {fill:black}</style>
  <style type="text/css">.fil0 {fill:black}</style>
 </defs>
 <path d="m8.1359 4.2333a3.9026 3.9026 0 0 1-3.9026 3.9026 3.9026 3.9026 0 0 1-3.9026-3.9026 3.9026 3.9026 0 0 1 3.9026-3.9026 3.9026 3.9026 0 0 1 3.9026 3.9026" fill="none" stroke="#fff" stroke-dashoffset="7.4" stroke-linejoin="round" stroke-width=".66146" style="paint-order:normal"/>
 <g fill="#fff">
  <g transform="matrix(.34763 0 0 .34762 -7.3502 -7.2585)" stroke-width=".76112"></g>
  <g stroke-width=".26458">
   <path d="m4.4979 2.9394-2.8864 0.00612c-0.12146 0.14223-0.22177 0.31416-0.26199 0.47956l3.1484-0.00244z"/>
   <path d="m4.4979 1.9692-2.1427 0.015644c-0.19253 0.13738-0.41513 0.29465-0.53622 0.4694h2.6789z"/>
   <path d="m4.4979 1.3229c-0.55867 0.022978-1.1002 0.13392-1.5775 0.32338h1.5775z"/>
   <path d="m4.4979 3.9094h-3.175v0.48508h3.175z"/>
   <path d="m4.4979 5.8497-2.6751 0.011c0.13875 0.17445 0.29284 0.32654 0.44862 0.47462h2.2265z"/>
   <path d="m4.4979 6.8204h-1.5775c0.4773 0.18946 1.0189 0.30047 1.5775 0.32338z"/>
   <path d="m4.4884 5.3647-2.9168-0.0061112c-0.10623-0.14749-0.1913-0.31417-0.23152-0.47957l3.1484 0.00244z"/>
  </g>
 </g>
</svg>
