<svg width="32" height="32" version="1.1" viewBox="0 0 8.4667 8.4667" xmlns="http://www.w3.org/2000/svg">
 <g fill="#fff">
  <path d="m4.2324 0c-2.3341-5.9808e-9 -4.2324 1.8983-4.2324 4.2324-5.9808e-8 2.3341 1.8983 4.2344 4.2324 4.2344s4.2344-1.9003 4.2344-4.2344-1.9003-4.2324-4.2344-4.2324zm0 0.66211c1.9766-6e-8 3.5723 1.5937 3.5723 3.5703 1e-7 1.9766-1.5957 3.5723-3.5723 3.5723-1.9766 0-3.5703-1.5957-3.5703-3.5723-1e-8 -1.9766 1.5937-3.5703 3.5703-3.5703z" color="#000000" color-rendering="auto" dominant-baseline="auto" image-rendering="auto" shape-rendering="auto" solid-color="#000000" stop-color="#000000" style="filter-blend-mode:normal;filter-gaussianBlur-deviation:0;font-feature-settings:normal;font-variant-alternates:normal;font-variant-caps:normal;font-variant-east-asian:normal;font-variant-ligatures:normal;font-variant-numeric:normal;font-variant-position:normal;font-variation-settings:normal;inline-size:0;isolation:auto;mix-blend-mode:normal;paint-order:markers stroke fill;shape-margin:0;shape-padding:0;text-decoration-color:#000000;text-decoration-line:none;text-decoration-style:solid;text-indent:0;text-orientation:mixed;text-transform:none;white-space:normal"/>
  <circle cx="3.175" cy="2.3812" r=".52917" style="paint-order:markers stroke fill"/>
  <circle cx="5.2917" cy="2.3812" r=".52917" style="paint-order:markers stroke fill"/>
  <circle cx="3.175" cy="5.8208" r=".52917" style="paint-order:markers stroke fill"/>
  <circle cx="5.2917" cy="5.8208" r=".52917" style="paint-order:markers stroke fill"/>
  <circle cx="2.1167" cy="4.2333" r=".52917" style="paint-order:markers stroke fill"/>
  <circle cx="4.2333" cy="4.2333" r=".52917" style="paint-order:markers stroke fill"/>
  <circle cx="6.35" cy="4.2333" r=".52917" style="paint-order:markers stroke fill"/>
 </g>
</svg>
