<svg width="32" height="32" version="1.1" viewBox="0 0 32 32" xmlns="http://www.w3.org/2000/svg">
 <defs>
  <style type="text/css">.fil0 {fill:black}</style>
 </defs>
 <g transform="matrix(3.7795 0 0 3.7795 .00011335 .00011335)" fill="none" stroke="#fff" stroke-dashoffset="7.4" stroke-linejoin="round" stroke-width=".66146">
  <path d="m8.1359 4.2333a3.9026 3.9026 0 0 1-3.9026 3.9026 3.9026 3.9026 0 0 1-3.9026-3.9026 3.9026 3.9026 0 0 1 3.9026-3.9026 3.9026 3.9026 0 0 1 3.9026 3.9026" style="paint-order:normal"/>
  <path d="m6.0193 4.2334a1.786 1.786 0 0 1-1.786 1.786 1.786 1.786 0 0 1-1.786-1.786 1.786 1.786 0 0 1 1.786-1.786 1.786 1.786 0 0 1 1.786 1.786" style="paint-order:normal"/>
 </g>
</svg>
