<?xml version="1.0" encoding="UTF-8" standalone="no"?>
<svg
   xmlns:dc="http://purl.org/dc/elements/1.1/"
   xmlns:cc="http://creativecommons.org/ns#"
   xmlns:rdf="http://www.w3.org/1999/02/22-rdf-syntax-ns#"
   xmlns:svg="http://www.w3.org/2000/svg"
   xmlns="http://www.w3.org/2000/svg"
   xmlns:sodipodi="http://sodipodi.sourceforge.net/DTD/sodipodi-0.dtd"
   xmlns:inkscape="http://www.inkscape.org/namespaces/inkscape"
   width="32"
   height="32"
   version="1.1"
   viewBox="0 0 32 32"
   id="svg4345"
   sodipodi:docname="bloom.svg"
   inkscape:version="1.0beta1 (fe3e306, 2019-09-17)">
  <metadata
     id="metadata4349">
    <rdf:RDF>
      <cc:Work
         rdf:about="">
        <dc:format>image/svg+xml</dc:format>
        <dc:type
           rdf:resource="http://purl.org/dc/dcmitype/StillImage" />
        <dc:title></dc:title>
      </cc:Work>
    </rdf:RDF>
  </metadata>
  <sodipodi:namedview
     pagecolor="#ffffff"
     bordercolor="#666666"
     inkscape:document-rotation="0"
     borderopacity="1"
     objecttolerance="10"
     gridtolerance="10"
     guidetolerance="10"
     inkscape:pageopacity="0"
     inkscape:pageshadow="2"
     inkscape:window-width="1720"
     inkscape:window-height="1369"
     id="namedview4347"
     showgrid="false"
     inkscape:pagecheckerboard="true"
     inkscape:zoom="20.269431"
     inkscape:cx="14.215327"
     inkscape:cy="24.560091"
     inkscape:window-x="3192"
     inkscape:window-y="0"
     inkscape:window-maximized="0"
     inkscape:current-layer="svg4345" />
  <defs
     id="defs4315">
    <style
       id="style2166"
       type="text/css">.fil0 {fill:black}</style>
    <style
       id="style2168"
       type="text/css">.fil0 {fill:black}</style>
    <style
       id="style2170"
       type="text/css">.fil0 {fill:black}</style>
    <style
       id="style2172"
       type="text/css">.fil0 {fill:black}</style>
    <style
       id="style2174"
       type="text/css">.fil0 {fill:black}</style>
    <style
       id="style2176"
       type="text/css">.fil0 {fill:black}</style>
    <style
       id="style2178"
       type="text/css">.fil0 {fill:black}</style>
    <style
       id="style2180"
       type="text/css">.fil0 {fill:black}</style>
    <style
       id="style2182"
       type="text/css">.fil0 {fill:black}</style>
    <style
       id="style2184"
       type="text/css">.fil0 {fill:black}</style>
    <style
       id="style2186"
       type="text/css">.fil0 {fill:black}</style>
  </defs>
  <path
     sodipodi:nodetypes="cccccccccccccccccccccccccccccccccccccccccccccccccccc"
     style="clip-rule:evenodd;fill:#ffffff;fill-opacity:1;fill-rule:nonzero;stroke:#ffffff;stroke-width:0.999994;stroke-miterlimit:4;stroke-dasharray:none;stroke-opacity:1;image-rendering:optimizeQuality;shape-rendering:geometricPrecision;text-rendering:geometricPrecision"
     id="path1090"
     d="M 14.740638,1.6123321 C 13.871556,2.8193919 13.485302,3.9298784 13.099037,5.2817884 11.312596,4.3644195 9.7675586,4.026442 7.7397035,4.1712922 7.5948628,5.6197658 7.7879516,6.7785389 8.1742445,8.1304394 6.1463893,8.2752896 4.6496387,8.7098307 2.9114837,9.8686037 3.5391522,11.172227 4.2633841,12.089586 5.2773069,13.103509 4.3599478,13.6829 3.6839928,14.214004 2.9597608,15.083087 c -0.4828182,0.627669 -0.9656459,1.351901 -1.3519004,2.12442 1.2070598,0.820794 2.3175463,1.255336 3.6694465,1.593314 -0.9173591,1.834728 -1.2553366,3.379765 -1.1104864,5.407619 1.4484641,0.144842 2.6072371,-0.04825 3.9591471,-0.43454 0.1448406,2.027856 0.6276682,3.524606 1.7381643,5.214484 1.3036131,-0.579392 2.2209831,-1.35191 3.2349051,-2.365833 1.110497,1.689878 2.269269,2.800374 4.103998,3.669456 0.820796,-1.158782 1.255337,-2.26927 1.593314,-3.669456 1.834728,0.917359 3.379755,1.303624 5.407611,1.158774 0.14485,-1.448464 -0.04825,-2.607238 -0.434541,-4.007425 2.027855,-0.09657 3.524605,-0.579391 5.214493,-1.689888 -0.579391,-1.351899 -1.351911,-2.220982 -2.365832,-3.234905 1.689877,-1.110495 2.800363,-2.269269 3.669446,-4.103997 -1.158773,-0.869082 -2.26926,-1.255337 -3.669446,-1.641601 0.917359,-1.786442 1.255336,-3.3314688 1.158773,-5.3593241 C 26.328378,7.5993346 25.169606,7.7924331 23.769419,8.178726 23.672855,6.1508706 23.190037,4.65412 22.079541,2.9159556 20.775917,3.5436239 19.858558,4.3161426 18.844626,5.2817884 17.73414,3.5919105 16.575366,2.5296915 14.740638,1.6123321 Z M 14.499224,0.59840939 c 1.738164,0.82079551 3.283192,1.83471831 4.441975,3.42803261 1.062209,-0.9656362 2.124419,-1.5450275 3.428032,-2.1244189 1.110497,1.5933142 1.931292,3.234915 2.172706,5.2144933 1.400188,-0.2897004 2.607247,-0.2897004 4.007434,-0.096572 0.14484,1.9312918 0.04825,3.7660186 -0.772518,5.6007476 1.3519,0.386255 2.414109,1.013933 3.572882,1.883005 -0.820796,1.738163 -1.834718,3.283202 -3.476319,4.441974 0.965646,1.06221 1.593314,2.124421 2.124419,3.428042 -1.593314,1.110487 -3.234916,1.931292 -5.214484,2.172697 0.337978,1.35191 0.337978,2.607246 0.14485,4.007433 -1.931291,0.14485 -3.76602,0.04825 -5.600747,-0.772518 -0.434542,1.351902 -1.013933,2.414119 -1.883006,3.572891 -1.786451,-0.869081 -3.283202,-1.834727 -4.490251,-3.476328 -1.062209,1.013934 -2.076142,1.593314 -3.3797655,2.124422 C 8.4156584,28.408992 7.6431398,26.767401 7.4017355,24.787823 6.0015486,25.1258 4.7944889,25.1258 3.394302,24.932673 3.2011746,23.001382 3.3460537,21.166653 4.1185339,19.331925 2.7666335,18.897384 1.7044242,18.318003 0.59392797,17.448921 1.0767556,16.386711 1.6078604,15.469342 2.3320923,14.60026 2.8631972,13.972592 3.4425886,13.39321 4.0219703,12.958668 3.0563245,11.944737 2.428656,10.882526 1.8975514,9.578913 3.4908656,8.4201303 5.1324664,7.6476214 7.112035,7.4062073 6.8223441,6.0060204 6.8223441,4.7989606 7.0154714,3.3987736 8.9467632,3.2056464 10.781491,3.3505256 12.61622,4.1230153 13.002474,2.7711054 13.630141,1.7088958 14.499224,0.59840939 Z"
     class="fil0"
     inkscape:connector-curvature="0" />
  <style
     id="style2194"
     type="text/css">.st0{fill:#010101;}</style>
  <style
     id="style2196"
     type="text/css">.st0{fill:none;stroke:#000000;stroke-width:80;stroke-miterlimit:10;}</style>
  <g
     style="stroke-width:3.49917"
     transform="matrix(0.28577924,0,0,0.28578415,11.428433,11.428441)"
     id="g1368">
    <g
       id="g2190"
       stroke-width=".76112"
       fill="#fff"
       transform="matrix(0.34763,0,0,0.34762,-7.3502,-7.2585)" />
    <g
       id="g2192"
       stroke-width=".76112"
       fill="#fff"
       transform="matrix(1.3139,0,0,1.3138,-57.62,-32.987)" />
    <ellipse
       ry="14.000016"
       rx="14.000018"
       id="ellipse2198"
       style="paint-order:markers stroke fill;stroke:#ffffff;stroke-opacity:1;stroke-width:6.99834886;stroke-miterlimit:4;stroke-dasharray:none"
       stroke-width="2"
       stroke-linecap="square"
       stroke-dashoffset="25.721"
       stroke="#fff"
       stop-color="#000000"
       fill="none"
       cy="16.000015"
       cx="16.000019" />
  </g>
</svg>
