<?xml version="1.0" encoding="UTF-8" standalone="no"?>
<svg
   xmlns:dc="http://purl.org/dc/elements/1.1/"
   xmlns:cc="http://creativecommons.org/ns#"
   xmlns:rdf="http://www.w3.org/1999/02/22-rdf-syntax-ns#"
   xmlns:svg="http://www.w3.org/2000/svg"
   xmlns="http://www.w3.org/2000/svg"
   xmlns:sodipodi="http://sodipodi.sourceforge.net/DTD/sodipodi-0.dtd"
   xmlns:inkscape="http://www.inkscape.org/namespaces/inkscape"
   inkscape:version="1.0beta1 (fe3e306, 2019-09-17)"
   sodipodi:docname="blur.svg"
   id="svg1838"
   viewBox="0 0 32 32"
   version="1.1"
   height="32"
   width="32">
  <metadata
     id="metadata1844">
    <rdf:RDF>
      <cc:Work
         rdf:about="">
        <dc:format>image/svg+xml</dc:format>
        <dc:type
           rdf:resource="http://purl.org/dc/dcmitype/StillImage" />
        <dc:title></dc:title>
      </cc:Work>
    </rdf:RDF>
  </metadata>
  <defs
     id="defs1842">
    <style
       type="text/css"
       id="style3938">.fil0 {fill:black}</style>
    <style
       type="text/css"
       id="style3940">.fil0 {fill:black}</style>
  </defs>
  <sodipodi:namedview
     scale-x="1"
     inkscape:current-layer="svg1838"
     inkscape:window-maximized="0"
     inkscape:window-y="22"
     inkscape:window-x="3275"
     inkscape:cy="18.483668"
     inkscape:cx="20.93312"
     inkscape:zoom="23.047262"
     inkscape:pagecheckerboard="true"
     showgrid="false"
     id="namedview1840"
     inkscape:window-height="1337"
     inkscape:window-width="2176"
     inkscape:pageshadow="2"
     inkscape:pageopacity="0"
     guidetolerance="10"
     gridtolerance="10"
     objecttolerance="10"
     borderopacity="1"
     inkscape:document-rotation="0"
     bordercolor="#666666"
     pagecolor="#ffffff" />
  <path
     sodipodi:nodetypes="ccssscccccc"
     style="stroke-width:1;stroke:none;fill:#ffffff;fill-opacity:1"
     id="path3824"
     d="m 16.656059,0.51596839 c -0.533914,-0.68795769 -1.573206,-0.68795769 -2.10712,0 C 13.468707,1.9296064 4,14.452304 4,20.400251 4,26.808139 9.1946163,32.002746 15.6025,32.002746 22.010384,32.002746 27,26.808139 27,20.400251 27,14.452304 17.736292,1.9296064 16.656059,0.51596839 Z M 15.6025,30 C 10.670738,29.992656 6.007344,25.353762 6,20.422 6,16.607846 12.388474,7.0191425 15.6025,2.5781862 18.816525,6.9924702 25,16.586097 25,20.400251 24.9927,25.332013 20.534262,29.992655 15.6025,30 Z"
     inkscape:connector-curvature="0" />
  <path
     sodipodi:nodetypes="cscc"
     inkscape:connector-curvature="0"
     d="m 21.511657,16.828891 c 1.886557,3.374433 0.680395,7.63931 -2.694039,9.525868 -3.374433,1.886557 -7.639309,0.680395 -9.5258668,-2.694039 8.5254378,-2.104647 11.0460078,-4.016753 12.2199058,-6.831829 z"
     style="fill:#ffffff;fill-opacity:1;stroke:none;stroke-width:2;stroke-linecap:round;stroke-miterlimit:4;stroke-dasharray:none;stroke-dashoffset:6.80542;stroke-opacity:1;paint-order:markers stroke fill"
     id="path4055" />
</svg>
