<svg width="32" height="32" version="1.1" viewBox="0 0 32 32" xmlns="http://www.w3.org/2000/svg">
 <defs>
  <style type="text/css">.fil0 {fill:black}</style>
  <style type="text/css">.fil0 {fill:black}</style>
  <style type="text/css">.fil0 {fill:black}</style>
  <style type="text/css">.fil0 {fill:black}</style>
  <style type="text/css">.fil0 {fill:black}</style>
  <style type="text/css">.fil0 {fill:black}</style>
  <style type="text/css">.fil0 {fill:black}</style>
  <style type="text/css">.fil0 {fill:black}</style>
  <style type="text/css">.fil0 {fill:black}</style>
  <style type="text/css">.fil0 {fill:black}</style>
  <style type="text/css">.fil0 {fill:black}</style>
 </defs>
 <style type="text/css">.st0{fill:#010101;}</style>
 <style type="text/css">.st0{fill:none;stroke:#000000;stroke-width:80;stroke-miterlimit:10;}</style>
 <path d="m16.004 0c-6.0734 0-11.004 4.9306-11.004 11.004 0 4.0163 3.6898 8.2939 5.0285 12.049 2.0245 5.5837 1.7959 8.9469 5.9755 8.9469 4.2449 0 3.951-3.3306 5.9755-8.9143 1.3388-3.7551 5.0285-8.0653 5.0285-12.082 0-6.0735-4.9306-11.004-11.004-11.004zm2.5796 27.167-4.9632 0.62041c-0.16326-0.52245-0.35918-1.1102-0.58775-1.8939v-0.03265l6.1714-0.78367c-0.09796 0.29388-0.19592 0.62041-0.26122 0.88163-0.13061 0.45714-0.22857 0.84898-0.35918 1.2082zm-5.8449-2.2531c-0.19592-0.58776-0.39183-1.2408-0.6204-1.8939h7.7714c-0.13061 0.35918-0.26122 0.71837-0.35918 1.0449zm3.2653 5.0939c-1.0122 0-1.4694-0.13061-1.9918-1.2408l4.2449-0.52245c-0.6204 1.6327-1.0775 1.7633-2.253 1.7633zm4.6694-9.0122h-9.3387c-0.48979-1.0776-1.1102-2.1551-1.6979-3.2-1.3061-2.351-2.6449-4.7347-2.6449-6.7918 0-4.9633 4.0489-9.0122 9.0122-9.0122 4.9632 0 9.0122 4.049 9.0122 9.0122 0 2.0245-1.3388 4.4408-2.6449 6.7918-0.6204 1.0449-1.2082 2.1224-1.6979 3.2z" fill="#fff"/>
 <path d="m16.008 5c-3.298 0-6.0082 2.6776-6.0082 6.0082 0 0.26122 0.22857 0.4898 0.4898 0.4898 0.26122 0 0.4898-0.22857 0.4898-0.4898 0-2.7429 2.2531-4.9959 4.9959-4.9959 0.26122 0 0.4898-0.22857 0.4898-0.4898 0-0.26122-0.19592-0.52245-0.45714-0.52245z" fill="#fff"/>
</svg>
