<?xml version="1.0" encoding="UTF-8" standalone="no"?>
<svg
   xmlns:dc="http://purl.org/dc/elements/1.1/"
   xmlns:cc="http://creativecommons.org/ns#"
   xmlns:rdf="http://www.w3.org/1999/02/22-rdf-syntax-ns#"
   xmlns:svg="http://www.w3.org/2000/svg"
   xmlns="http://www.w3.org/2000/svg"
   xmlns:sodipodi="http://sodipodi.sourceforge.net/DTD/sodipodi-0.dtd"
   xmlns:inkscape="http://www.inkscape.org/namespaces/inkscape"
   inkscape:version="1.0beta1 (fe3e306, 2019-09-17)"
   sodipodi:docname="exposure.svg"
   id="svg8"
   version="1.1"
   viewBox="0 0 8.4666659 8.4666659"
   height="32"
   width="32">
  <defs
     id="defs2" />
  <sodipodi:namedview
     inkscape:window-maximized="0"
     inkscape:window-y="80"
     inkscape:window-x="3408"
     inkscape:window-height="1233"
     inkscape:window-width="1561"
     units="px"
     inkscape:showpageshadow="false"
     inkscape:pagecheckerboard="true"
     showgrid="false"
     inkscape:document-rotation="0"
     inkscape:current-layer="layer1"
     inkscape:document-units="px"
     inkscape:cy="17.64161"
     inkscape:cx="14.175441"
     inkscape:zoom="22.4"
     inkscape:pageshadow="2"
     inkscape:pageopacity="0.37254902"
     borderopacity="1.0"
     bordercolor="#666666"
     pagecolor="#5b5b5b"
     id="base" />
  <metadata
     id="metadata5">
    <rdf:RDF>
      <cc:Work
         rdf:about="">
        <dc:format>image/svg+xml</dc:format>
        <dc:type
           rdf:resource="http://purl.org/dc/dcmitype/StillImage" />
        <dc:title></dc:title>
      </cc:Work>
    </rdf:RDF>
  </metadata>
  <g
     id="layer1"
     inkscape:groupmode="layer"
     inkscape:label="Layer 1">
    <circle
       r="3.7041464"
       cy="4.2333131"
       cx="4.2333131"
       id="path833-1-5"
       style="fill:none;stroke:#ffffff;stroke-width:0.529167;stroke-linecap:round;stroke-linejoin:round;stroke-miterlimit:4;stroke-dasharray:none;stroke-dashoffset:6.80542;stroke-opacity:1;paint-order:markers stroke fill" />
    <path
       sodipodi:nodetypes="ccccccccccccccccccccccccccccccccc"
       style="fill:#ffffff;fill-opacity:1;stroke-width:0.264584"
       id="path3570"
       d="m 5.913555,4.2333327 v 0 L 6.7501996,2.7781249 C 7.2028936,3.5529198 7.2687912,4.494424 6.9284418,5.3247388 H 5.284251 Z M 6.5246701,2.4470649 5.688024,3.8695311 5.2878888,3.174669 v 0 L 4.2329885,1.3229165 c 0.8962219,0.00179 1.7416259,0.4164941 2.2916816,1.1241484 z M 3.8328536,1.3556587 4.6549488,2.7781249 H 1.7157766 C 2.1650624,2.0034681 2.9459225,1.4788073 3.8328536,1.3556587 Z M 1.322917,4.2333327 C 1.322711,3.8590244 1.3956154,3.4882803 1.5375348,3.1419269 h 1.6441903 l -0.629303,1.0914058 v 0 L 1.7157766,5.6885405 C 1.4583573,5.2467928 1.3227883,4.7446265 1.322917,4.2333327 Z M 4.2329885,7.1437495 C 3.3367663,7.1419549 2.4913624,6.7272551 1.9413071,6.0196006 L 2.7779527,4.5971343 3.1053358,5.1646654 v 0 L 4.2329885,7.1437495 M 4.6331233,7.1110069 3.811028,5.6885405 H 6.7501996 C 6.3009141,6.4631971 5.5200541,6.9878579 4.6331233,7.1110069"
       inkscape:connector-curvature="0" />
  </g>
</svg>
