<?xml version="1.0" encoding="UTF-8"?>
<svg width="32" height="32" version="1.1" viewBox="0 0 32 32" xmlns="http://www.w3.org/2000/svg" xmlns:cc="http://creativecommons.org/ns#" xmlns:dc="http://purl.org/dc/elements/1.1/" xmlns:rdf="http://www.w3.org/1999/02/22-rdf-syntax-ns#">
 <metadata>
  <rdf:RDF>
   <cc:Work rdf:about="">
    <dc:format>image/svg+xml</dc:format>
    <dc:type rdf:resource="http://purl.org/dc/dcmitype/StillImage"/>
    <dc:title/>
   </cc:Work>
  </rdf:RDF>
 </metadata>
 <defs>
  <style type="text/css">.fil0 {fill:black}</style>
  <style type="text/css">.fil0 {fill:black}</style>
 </defs>
 <rect x="2" y="4" width="28" height="24.143" rx="4" ry="4" fill="none" stroke="#fff" stroke-dashoffset="6.8054" stroke-linecap="round" stroke-width="2" style="paint-order:markers stroke fill"/>
 <g transform="matrix(.47056 .055404 -.055404 .47056 -8.5792 -1.4665)" fill="#fff">
  <path d="m33.801 43.761c-4.8649 3.9514 3.3655 10.003 5.3593 6.3653 3.8055-4.6373-3.3993-9.9412-5.3593-6.3653z"/>
  <path d="m31.118 32.941c-4.423 3.8018 3.1943 9.3118 5.0726 5.885 3.5856-4.3115-3.2151-9.274-5.0726-5.885z"/>
  <path d="m41.601 35.491c-5.4692 4.306 3.6488 11.016 5.8002 7.0913 4.1881-5.1437-3.7056-10.936-5.8002-7.0913z"/>
  <path d="m39.207 25.497c-4.1976 3.6696 3.084 8.9511 4.9144 5.6206 3.4387-4.133-3.0958-8.9299-4.9144-5.6206z"/>
  <path d="m42.861 20.404c2.9822-3.4149-2.7091-7.5018-4.2991-4.6034-3.2878 3.2144 2.7028 7.5159 4.2991 4.6034z"/>
  <path d="m51.923 14.552c1.8514-2.5476-2.0957-5.4988-3.4017-3.1343-2.1878 2.4067 2.1284 5.4714 3.4017 3.1343z"/>
  <path d="m52.456 24.275c3.1608-3.5725-2.8111-7.8418-4.4463-4.8583-3.5047 3.3431 2.7965 7.8657 4.4463 4.8583z"/>
  <path d="m59.686 19.174c2.1755-2.8713-2.3056-6.2164-3.7119-3.6507-2.6117 2.6334 2.3093 6.2097 3.7119 3.6507z"/>
  <path d="m63.004 12.103c1.8468-2.5485-2.1012-5.5192-3.4073-3.1529-2.2064 2.4085 2.1334 5.491 3.4073 3.1529z"/>
  <path d="m32.469 15.711c1.2309-2.2594-1.8754-4.9767-3.1355-2.6839-1.9357 2.0784 1.9452 4.8535 3.1355 2.6839z"/>
  <path d="m29.981 22.582c-3.3064 3.2212 2.7008 7.5165 4.2984 4.6043 2.9823-3.4133-2.7033-7.5069-4.2984-4.6043z"/>
  <path d="m50.042 28.234c-4.8486 3.9364 3.3548 9.9562 5.3399 6.3376 3.7894-4.6206-3.3887-9.8975-5.3399-6.3376z"/>
  <path d="m58.71 23.137c-3.5181 3.3506 2.8001 7.8874 4.4527 4.8722 3.1781-3.5864-2.8286-7.8532-4.4527-4.8722z"/>
  <path d="m69.953 20.994c3.008-3.4322-2.7136-7.5453-4.3045-4.6428-3.3275 3.2254 2.702 7.5664 4.3045 4.6428z"/>
  <path d="m73.533 13.294c0.95749-1.9553-1.6842-4.2478-2.8231-2.1841-1.4679 1.9032 1.7753 4.1055 2.8231 2.1841z"/>
  <path d="m49.462 53.327c3.7668-4.5585-3.3514-9.7621-5.2814-6.2411-4.7606 3.8916 3.3121 9.8338 5.2814 6.2411z"/>
  <path d="m57.985 45.43c3.948-4.8061-3.5049-10.285-5.513-6.6184-5.0855 4.0753 3.4586 10.367 5.513 6.6184z"/>
  <path d="m66.397 37.572c3.4434-4.1211-3.0976-8.8989-4.9052-5.607-4.1841 3.6615 3.0861 8.9258 4.9052 5.607z"/>
  <path d="m73.906 30.126c3.1556-3.5674-2.8007-7.855-4.4437-4.8602-3.5138 3.3484 2.796 7.8662 4.4437 4.8602z"/>
  <path d="m79.33 21.999c1.4458-2.4932-2.0252-5.4991-3.3549-3.0585-2.301 2.1713 2.0721 5.4131 3.3549 3.0585z"/>
  <path d="m77.626 40.604c3.2201-3.6381-2.8816-7.9494-4.5072-4.9448-3.5774 3.3908 2.8307 8.0009 4.5072 4.9448z"/>
  <path d="m68.998 48.094c3.5772-4.306-3.2307-9.2138-5.0558-5.8435-4.3872 3.788 3.1828 9.2638 5.0558 5.8435z"/>
 </g>
</svg>
