<?xml version="1.0" encoding="UTF-8"?>
<svg width="220" height="140" version="1.1" viewBox="0 0 58.208 37.042" xmlns="http://www.w3.org/2000/svg" xmlns:cc="http://creativecommons.org/ns#" xmlns:dc="http://purl.org/dc/elements/1.1/" xmlns:rdf="http://www.w3.org/1999/02/22-rdf-syntax-ns#">
 <metadata>
  <rdf:RDF>
   <cc:Work rdf:about="">
    <dc:format>image/svg+xml</dc:format>
    <dc:type rdf:resource="http://purl.org/dc/dcmitype/StillImage"/>
    <dc:title/>
   </cc:Work>
  </rdf:RDF>
 </metadata>
 <g>
  <path d="m58.208 7.9003e-6 -58.208-7.9003e-6v37.042h58.208z" fill="#691640" stroke-width=".26458"/>
  <g stroke-width=".26458">
   <path d="m21.674 0.0014879 36.534-0.00148s-21.792 7.4929-21.409 11.366c-6.7421-1.5529-12.279-5.7904-15.125-11.364zm15.125 11.364c1.0718 10.662 9.9136 19.311 21.41 21.355l-0.0017-32.721s-13.806 13.082-21.409 11.366z" fill="#b81466"/>
   <path d="m58.209 6.4305c-4.1008 3.4577-9.6177 5.58-15.69 5.5803-1.9747 9.7e-5 -3.8909-0.22404-5.7191-0.64515-0.07225-0.71856-0.11498-1.4447-0.1151-2.1802-2.2e-4 -3.2538 0.72521-6.3549 2.0334-9.1846l19.491-7.757e-4z" fill="#99004d"/>
   <path d="m29.362 37.04-29.362 0.0013s-2.6725e-4 -5.4558-0.0013008-28.164c15.821-6.79e-4 28.717 12.5 29.363 28.163z" fill="#b81466"/>
   <path d="m-3.4056e-4 29.929c2.4517-2.4841 5.8566-4.0251 9.6225-4.0252 6.6538-3.22e-4 12.181 4.8068 13.308 11.137l-22.931 9.7e-4z" fill="#99004d"/>
  </g>
 </g>
 <g stroke-width=".26458">
  <path class="st3" d="m39.688 14.288c0 5.8429-4.7349 10.583-10.583 10.583-5.8484 0-10.583-4.7404-10.583-10.583 0-5.8429 4.7404-10.583 10.583-10.583 5.8429 0 10.583 4.7405 10.583 10.583z" fill="#fff"/>
  <path class="st0" d="m28.696 11.531c0 0.66146-0.3197 1.3064-1.119 1.6592 1.0087 0.30868 1.378 1.378 1.378 1.9182 0 1.9182-1.4387 2.5356-3.2191 2.5356h-4.0845v-8.61h4.0845c1.6922 0 2.96 0.76619 2.96 2.497zm-5.446 0.95912h2.486c1.0198 0 1.3505-0.42995 1.3505-0.92053 0-0.39136-0.3197-1.0583-1.3505-1.0583h-2.486zm0 3.638h2.486c0.66146 0 1.6096-0.22049 1.6096-1.0308 0-0.77721-0.94809-1.1796-1.6096-1.1796h-2.486z" fill="#691640"/>
  <path class="st0" d="m35.454 10.931 1.1079 0.83785-0.76068 0.88746c0.52917 0.62839 0.70004 1.1796 0.70004 1.808 0 1.0804-0.5016 1.819-1.4993 2.2765 1.2898 0.46853 1.4993 1.378 1.4993 1.9678 0 1.7198-1.6867 2.5576-3.3073 2.5576-2.1001 0-3.3348-1.0583-3.2687-2.7891h1.4883c-0.0496 0.84887 0.83785 1.3284 1.7859 1.3395 0.83785 0 1.7474-0.35829 1.7474-1.1079 0-0.7276-0.58981-1.1906-1.7198-1.1906-2.0064 0-3.3183-1.1576-3.3183-3.0482 0-2.0395 1.6261-3.0758 3.3183-3.0758 0.47956 0 1.141 0.09922 1.5599 0.38034zm-4.0624 3.5278c0 1.0583 0.83784 1.6702 1.819 1.6702 0.98667 0 1.7859-0.62839 1.7859-1.6702 0-1.0308-0.79926-1.6867-1.7859-1.6867-0.98117 0.0055-1.819 0.55673-1.819 1.6867z" fill="#691640"/>
 </g>
</svg>
