<?xml version="1.0" standalone="no"?>
<!DOCTYPE svg PUBLIC "-//W3C//DTD SVG 20010904//EN"
 "http://www.w3.org/TR/2001/REC-SVG-20010904/DTD/svg10.dtd">
<svg version="1.0" xmlns="http://www.w3.org/2000/svg"
 width="700.000000pt" height="700.000000pt" viewBox="0 0 700.000000 700.000000"
 preserveAspectRatio="xMidYMid meet">
<metadata>
Created by potrace 1.11, written by Peter Selinger 2001-2013
</metadata>
<g transform="translate(0.000000,700.000000) scale(0.100000,-0.100000)"
fill="#000000" stroke="none">
<path d="M0 5751 l0 -1248 158 -7 c269 -11 588 -50 838 -101 30 -7 30 -7 68
87 298 731 913 1296 1661 1527 96 29 164 46 288 71 l58 12 -103 106 c-121 125
-213 238 -307 377 -79 115 -182 292 -217 371 l-24 54 -1210 0 -1210 0 0 -1249z"/>
<path d="M2460 3500 l0 -1340 1000 0 1000 0 0 250 0 250 -750 0 -750 0 0 300
0 300 720 0 720 0 0 235 0 235 -720 0 -720 0 0 310 0 310 750 0 750 0 0 245 0
245 -1000 0 -1000 0 0 -1340z"/>
<path d="M6006 2718 c-28 -102 -104 -286 -172 -418 -260 -500 -667 -901 -1172
-1152 -107 -54 -141 -75 -137 -87 2 -9 20 -79 39 -156 58 -240 103 -534 122
-807 l6 -98 1154 0 1154 0 0 1214 0 1213 -62 12 c-204 39 -501 144 -747 262
-90 43 -164 79 -166 79 -1 0 -9 -28 -19 -62z"/>
<path d="M1370 1769 c-468 -34 -906 -221 -1274 -545 l-96 -85 0 -569 0 -570
1831 0 1831 0 -7 33 c-52 262 -164 540 -303 754 l-60 91 -69 7 c-118 12 -325
53 -454 90 -434 125 -828 362 -1153 694 -60 61 -116 110 -125 110 -9 -1 -63
-5 -121 -10z"/>
</g>
</svg>
